<?xml version="1.0" encoding="utf-8"?>
<!-- Created with VectorSnake https://github.com/Maarrk/vectorsnake -->

<svg xmlns="http://www.w3.org/2000/svg" width="800" height="800">
  <!-- Coordinate grid: -->
    <line x1="0" y1="800" x2="0" y2="0" style="fill:none;stroke:rgb(191, 191, 191);stroke-width:2" />
    <line x1="133" y1="800" x2="133" y2="0" style="fill:none;stroke:rgb(191, 191, 191);stroke-width:2" />
    <line x1="266" y1="800" x2="266" y2="0" style="fill:none;stroke:rgb(191, 191, 191);stroke-width:2" />
    <line x1="533" y1="800" x2="533" y2="0" style="fill:none;stroke:rgb(191, 191, 191);stroke-width:2" />
    <line x1="666" y1="800" x2="666" y2="0" style="fill:none;stroke:rgb(191, 191, 191);stroke-width:2" />
    <line x1="800" y1="800" x2="800" y2="0" style="fill:none;stroke:rgb(191, 191, 191);stroke-width:2" />
    <line x1="0" y1="800" x2="800" y2="800" style="fill:none;stroke:rgb(191, 191, 191);stroke-width:2" />
    <line x1="0" y1="666" x2="800" y2="666" style="fill:none;stroke:rgb(191, 191, 191);stroke-width:2" />
    <line x1="0" y1="533" x2="800" y2="533" style="fill:none;stroke:rgb(191, 191, 191);stroke-width:2" />
    <line x1="0" y1="266" x2="800" y2="266" style="fill:none;stroke:rgb(191, 191, 191);stroke-width:2" />
    <line x1="0" y1="133" x2="800" y2="133" style="fill:none;stroke:rgb(191, 191, 191);stroke-width:2" />
    <line x1="0" y1="0" x2="800" y2="0" style="fill:none;stroke:rgb(191, 191, 191);stroke-width:2" />
    <line x1="400" y1="800" x2="400" y2="0" style="fill:none;stroke:rgb(63, 63, 63);stroke-width:2" />
    <line x1="0" y1="400" x2="800" y2="400" style="fill:none;stroke:rgb(63, 63, 63);stroke-width:2" />

  <line x1="266" y1="400" x2="666" y2="266" style="fill:none;stroke:rgb(0, 0, 0);stroke-width:2" />
  <polyline points="266.666666667,400.0 400.0,133.333333333 533.333333333,400.0" style="fill:none;stroke:rgb(0, 255, 255);stroke-width:2" />
</svg>
