<?xml version="1.0" encoding="utf-8"?>
<!-- Created with VectorSnake https://github.com/Maarrk/vectorsnake -->

<svg xmlns="http://www.w3.org/2000/svg" width="600" height="600">
  <!-- Coordinate grid: -->
    <line x1="0" y1="600" x2="0" y2="0" style="fill:none;stroke:rgb(191, 191, 191);stroke-width:2" />
    <line x1="75" y1="600" x2="75" y2="0" style="fill:none;stroke:rgb(191, 191, 191);stroke-width:2" />
    <line x1="150" y1="600" x2="150" y2="0" style="fill:none;stroke:rgb(191, 191, 191);stroke-width:2" />
    <line x1="225" y1="600" x2="225" y2="0" style="fill:none;stroke:rgb(191, 191, 191);stroke-width:2" />
    <line x1="375" y1="600" x2="375" y2="0" style="fill:none;stroke:rgb(191, 191, 191);stroke-width:2" />
    <line x1="450" y1="600" x2="450" y2="0" style="fill:none;stroke:rgb(191, 191, 191);stroke-width:2" />
    <line x1="525" y1="600" x2="525" y2="0" style="fill:none;stroke:rgb(191, 191, 191);stroke-width:2" />
    <line x1="600" y1="600" x2="600" y2="0" style="fill:none;stroke:rgb(191, 191, 191);stroke-width:2" />
    <line x1="0" y1="600" x2="600" y2="600" style="fill:none;stroke:rgb(191, 191, 191);stroke-width:2" />
    <line x1="0" y1="450" x2="600" y2="450" style="fill:none;stroke:rgb(191, 191, 191);stroke-width:2" />
    <line x1="0" y1="375" x2="600" y2="375" style="fill:none;stroke:rgb(191, 191, 191);stroke-width:2" />
    <line x1="0" y1="300" x2="600" y2="300" style="fill:none;stroke:rgb(191, 191, 191);stroke-width:2" />
    <line x1="0" y1="225" x2="600" y2="225" style="fill:none;stroke:rgb(191, 191, 191);stroke-width:2" />
    <line x1="0" y1="150" x2="600" y2="150" style="fill:none;stroke:rgb(191, 191, 191);stroke-width:2" />
    <line x1="0" y1="75" x2="600" y2="75" style="fill:none;stroke:rgb(191, 191, 191);stroke-width:2" />
    <line x1="0" y1="0" x2="600" y2="0" style="fill:none;stroke:rgb(191, 191, 191);stroke-width:2" />
    <line x1="300" y1="600" x2="300" y2="0" style="fill:none;stroke:rgb(63, 63, 63);stroke-width:2" />
    <line x1="0" y1="525" x2="600" y2="525" style="fill:none;stroke:rgb(63, 63, 63);stroke-width:2" />

  <line x1="225" y1="525" x2="450" y2="450" style="fill:none;stroke:rgb(0, 0, 0);stroke-width:2" />
  <polyline points="225.0,375.0 199.988344783,355.4944867 173.754243367,345.2398315 148.865672383,345.2398315 127.758898567,355.4944867 112.5,375.0 104.582623989,401.847035856 104.781778461,433.407619344 113.077968789,466.592380656 128.659106061,498.152964144 150.0,525.0" style="fill:none;stroke:rgb(0, 255, 255);stroke-width:2" />
  <polyline points="225.0,375.0 337.5,450.0 367.082039325,474.688470506 367.082039325,491.458980337" style="fill:none;stroke:rgb(255, 0, 0);stroke-width:2" />
</svg>
