<?xml version="1.0" encoding="utf-8"?>
<!-- Created with VectorSnake https://github.com/Maarrk/vectorsnake -->

<svg xmlns="http://www.w3.org/2000/svg" width="600" height="600">
  <!-- Coordinate grid: -->
    <line x1="0" y1="600" x2="0" y2="0" style="fill:none;stroke:rgb(191, 191, 191);stroke-width:2" />
    <line x1="75" y1="600" x2="75" y2="0" style="fill:none;stroke:rgb(191, 191, 191);stroke-width:2" />
    <line x1="150" y1="600" x2="150" y2="0" style="fill:none;stroke:rgb(191, 191, 191);stroke-width:2" />
    <line x1="225" y1="600" x2="225" y2="0" style="fill:none;stroke:rgb(191, 191, 191);stroke-width:2" />
    <line x1="375" y1="600" x2="375" y2="0" style="fill:none;stroke:rgb(191, 191, 191);stroke-width:2" />
    <line x1="450" y1="600" x2="450" y2="0" style="fill:none;stroke:rgb(191, 191, 191);stroke-width:2" />
    <line x1="525" y1="600" x2="525" y2="0" style="fill:none;stroke:rgb(191, 191, 191);stroke-width:2" />
    <line x1="600" y1="600" x2="600" y2="0" style="fill:none;stroke:rgb(191, 191, 191);stroke-width:2" />
    <line x1="0" y1="600" x2="600" y2="600" style="fill:none;stroke:rgb(191, 191, 191);stroke-width:2" />
    <line x1="0" y1="450" x2="600" y2="450" style="fill:none;stroke:rgb(191, 191, 191);stroke-width:2" />
    <line x1="0" y1="375" x2="600" y2="375" style="fill:none;stroke:rgb(191, 191, 191);stroke-width:2" />
    <line x1="0" y1="300" x2="600" y2="300" style="fill:none;stroke:rgb(191, 191, 191);stroke-width:2" />
    <line x1="0" y1="225" x2="600" y2="225" style="fill:none;stroke:rgb(191, 191, 191);stroke-width:2" />
    <line x1="0" y1="150" x2="600" y2="150" style="fill:none;stroke:rgb(191, 191, 191);stroke-width:2" />
    <line x1="0" y1="75" x2="600" y2="75" style="fill:none;stroke:rgb(191, 191, 191);stroke-width:2" />
    <line x1="0" y1="0" x2="600" y2="0" style="fill:none;stroke:rgb(191, 191, 191);stroke-width:2" />
    <line x1="300" y1="600" x2="300" y2="0" style="fill:none;stroke:rgb(63, 63, 63);stroke-width:2" />
    <line x1="0" y1="525" x2="600" y2="525" style="fill:none;stroke:rgb(63, 63, 63);stroke-width:2" />

  <polyline points="150.0,525.0 131.324007946,502.233896229 116.732746263,475.669704085 107.287190779,447.238988252 103.674157088,419.009034136 106.156360061,393.032529132 114.55331103,371.198305374 128.254441685,355.093996897 146.26350038,345.890597848 167.27099268,344.257315877 189.749398755,350.312911974 212.06424408,363.617064992 225.0,365.139372235 225.0,339.527903255 225.0,313.916434274 225.0,288.304965294 225.0,262.693496314 225.0,237.082027333 225.0,211.470558353 225.0,185.859089372 225.0,160.247620392 226.568156912,134.743381088 235.91751699,111.032893728 252.667381323,91.822485364 274.883407852,79.3306516313 300.0,75.0 325.116592148,79.3306516313 347.332618677,91.822485364 364.08248301,111.032893728 373.431843088,134.743381088 375.0,160.247620392 375.0,185.859089372 375.0,211.470558353 375.0,237.082027333 375.0,262.693496314 375.0,288.304965294 375.0,313.916434274 375.0,339.527903255 375.0,365.139372235 387.93575592,363.617064992 410.250601245,350.312911974 432.72900732,344.257315877 453.73649962,345.890597848 471.745558315,355.093996897 485.44668897,371.198305374 493.843639939,393.032529132 496.325842912,419.009034136 492.712809221,447.238988252 483.267253737,475.669704085 468.675992054,502.233896229 450.0,525.0" style="fill:none;stroke:rgb(0, 255, 255);stroke-width:2" />
</svg>
